# xmcd
# 
# Track frame offsets:
#     150
#     19481
#     37727
#     55851
#     73869
#     93892
#     111574
#     130282
#     146231
#     163140
# 
# Disc length: 2380
# 
# Revision: 2
# Processed by: cddbd v1.5.2PL0 Copyright (c) Steve Scherf et al.
# Submitted via: BonkEnc v1.0.8
# 
DISCID=93094a0a
DTITLE=Tóth Veronika - Ébren Álmodom
DYEAR=2004
DGENRE=Pop
TTITLE0=Nem baj, hogy semmi nem jön könnyen
TTITLE1=Nincs édesebb az életnél
TTITLE2=Mintha minden másképp volna
TTITLE3=Tépd le a láncod
TTITLE4=Árva boldogság
TTITLE5=Hívj fel a régi számon
TTITLE6=Álom és valóság
TTITLE7=Nem tudom
TTITLE8=A lányok sírnak a filmeken
TTITLE9=Kamasz szerelem
EXTD=
EXTT0=
EXTT1=
EXTT2=
EXTT3=
EXTT4=
EXTT5=
EXTT6=
EXTT7=
EXTT8=
EXTT9=
PLAYORDER=
